<svg width="42" height="39" viewBox="0 0 42 39" fill="none" xmlns="http://www.w3.org/2000/svg">
<mask id="mask0_0_179" style="mask-type:alpha" maskUnits="userSpaceOnUse" x="0" y="0" width="43" height="39">
<path d="M33.0004 9.66687H37.6671C38.5512 9.66687 39.399 10.0181 40.0241 10.6432C40.6492 11.2683 41.0004 12.1161 41.0004 13.0002V26.3335C41.0004 26.7713 40.9142 27.2047 40.7467 27.6091C40.5792 28.0136 40.3337 28.381 40.0241 28.6906C39.7146 29.0001 39.3471 29.2456 38.9427 29.4131C38.5383 29.5806 38.1048 29.6669 37.6671 29.6669H35.6671V36.3335L26.3338 29.6669H18.3338" stroke="#212121" stroke-width="2" stroke-miterlimit="10" stroke-linecap="square"/>
<path d="M29.6667 1H4.33333C3.44928 1 2.60143 1.35119 1.97631 1.97631C1.35119 2.60143 1 3.44928 1 4.33333V19.6667C1 20.5507 1.35119 21.3986 1.97631 22.0237C2.60143 22.6488 3.44928 23 4.33333 23H7.66667V32.3333L18.3333 23H29.6667C30.5507 23 31.3986 22.6488 32.0237 22.0237C32.6488 21.3986 33 20.5507 33 19.6667V4.33333C33 3.44928 32.6488 2.60143 32.0237 1.97631C31.3986 1.35119 30.5507 1 29.6667 1Z" stroke="#212121" stroke-width="2" stroke-miterlimit="10" stroke-linecap="square"/>
</mask>
<g mask="url(#mask0_0_179)">
<rect x="-2.99982" y="-5.00012" width="48" height="48" fill="#7065F0"/>
</g>
</svg>
