<svg width="40" height="40" viewBox="0 0 40 40" fill="none" xmlns="http://www.w3.org/2000/svg">
<mask id="mask0_0_188" style="mask-type:alpha" maskUnits="userSpaceOnUse" x="0" y="0" width="40" height="40">
<g clip-path="url(#clip0_0_188)">
<g clip-path="url(#clip1_0_188)">
<path d="M9.155 32.9049L0.442498 24.1924C0.384294 24.1344 0.338115 24.0654 0.306607 23.9895C0.275099 23.9135 0.258881 23.8321 0.258881 23.7499C0.258881 23.6677 0.275099 23.5863 0.306607 23.5104C0.338115 23.4344 0.384294 23.3655 0.442498 23.3074L2.1375 21.6124C2.23959 21.5101 2.37398 21.4464 2.51779 21.432C2.6616 21.4176 2.80595 21.4536 2.92625 21.5337L10 26.2499L27.1825 6.61366C27.2736 6.50955 27.3966 6.43859 27.5323 6.41189C27.668 6.3852 27.8088 6.40429 27.9325 6.46616L29.3612 7.17991C29.4411 7.21973 29.5115 7.27618 29.5677 7.34546C29.6239 7.41473 29.6646 7.49524 29.6871 7.58157C29.7096 7.66789 29.7133 7.75803 29.6981 7.84593C29.6829 7.93383 29.649 8.01744 29.5987 8.09116L12.9625 32.5824C12.5792 33.1234 11.9968 33.4901 11.3432 33.6016C10.6897 33.7132 10.0185 33.5606 9.4775 33.1774C9.36274 33.0955 9.25488 33.0044 9.155 32.9049Z" fill="#212121"/>
<path d="M38.75 13.75H32.5C32.1685 13.75 31.8505 13.6183 31.6161 13.3839C31.3817 13.1495 31.25 12.8315 31.25 12.5C31.25 12.1685 31.3817 11.8505 31.6161 11.6161C31.8505 11.3817 32.1685 11.25 32.5 11.25H38.75C39.0815 11.25 39.3995 11.3817 39.6339 11.6161C39.8683 11.8505 40 12.1685 40 12.5C40 12.8315 39.8683 13.1495 39.6339 13.3839C39.3995 13.6183 39.0815 13.75 38.75 13.75Z" fill="#212121"/>
<path d="M38.75 22.5H27.5C27.1685 22.5 26.8505 22.3683 26.6161 22.1339C26.3817 21.8995 26.25 21.5815 26.25 21.25C26.25 20.9185 26.3817 20.6005 26.6161 20.3661C26.8505 20.1317 27.1685 20 27.5 20H38.75C39.0815 20 39.3995 20.1317 39.6339 20.3661C39.8683 20.6005 40 20.9185 40 21.25C40 21.5815 39.8683 21.8995 39.6339 22.1339C39.3995 22.3683 39.0815 22.5 38.75 22.5Z" fill="#212121"/>
<path d="M38.75 31.25H21.25C20.9185 31.25 20.6005 31.1183 20.3661 30.8839C20.1317 30.6495 20 30.3315 20 30C20 29.6685 20.1317 29.3505 20.3661 29.1161C20.6005 28.8817 20.9185 28.75 21.25 28.75H38.75C39.0815 28.75 39.3995 28.8817 39.6339 29.1161C39.8683 29.3505 40 29.6685 40 30C40 30.3315 39.8683 30.6495 39.6339 30.8839C39.3995 31.1183 39.0815 31.25 38.75 31.25Z" fill="#212121"/>
</g>
</g>
</mask>
<g mask="url(#mask0_0_188)">
<rect x="-4" y="-4" width="48" height="48" fill="#7065F0"/>
</g>
<defs>
<clipPath id="clip0_0_188">
<rect width="40" height="40" fill="white"/>
</clipPath>
<clipPath id="clip1_0_188">
<rect width="40" height="40" fill="white"/>
</clipPath>
</defs>
</svg>
