<svg width="48" height="48" viewBox="0 0 48 48" fill="none" xmlns="http://www.w3.org/2000/svg">
<mask id="mask0_167_18" style="mask-type:alpha" maskUnits="userSpaceOnUse" x="0" y="0" width="48" height="48">
<path d="M10 33H24" stroke="#212121" stroke-width="2" stroke-miterlimit="10" stroke-linecap="square"/>
<path d="M32 33H38" stroke="#212121" stroke-width="2" stroke-miterlimit="10" stroke-linecap="square"/>
<path d="M42.9995 41H4.99953C4.60355 41.0073 4.21015 40.9348 3.84286 40.7866C3.47558 40.6384 3.14194 40.4177 2.86189 40.1377C2.58184 39.8576 2.36113 39.524 2.21296 39.1567C2.06479 38.7894 1.9922 38.396 1.99953 38V12C1.9922 11.604 2.06479 11.2106 2.21296 10.8434C2.36113 10.4761 2.58184 10.1424 2.86189 9.86238C3.14194 9.58233 3.47558 9.36162 3.84286 9.21345C4.21015 9.06528 4.60355 8.99269 4.99953 9.00002H42.9995C43.3955 8.99269 43.7889 9.06528 44.1562 9.21345C44.5235 9.36162 44.8571 9.58233 45.1372 9.86238C45.4172 10.1424 45.6379 10.4761 45.7861 10.8434C45.9343 11.2106 46.0069 11.604 45.9995 12V38C46.0069 38.396 45.9343 38.7894 45.7861 39.1567C45.6379 39.524 45.4172 39.8576 45.1372 40.1377C44.8571 40.4177 44.5235 40.6384 44.1562 40.7866C43.7889 40.9348 43.3955 41.0073 42.9995 41Z" stroke="#212121" stroke-width="2" stroke-miterlimit="10" stroke-linecap="square"/>
<path d="M31.1885 23.3919C31.7145 22.7054 31.9995 21.8647 31.9995 20.9999C31.9995 20.1351 31.7145 19.2944 31.1885 18.6079" stroke="black" stroke-width="2" stroke-miterlimit="10" stroke-linecap="square"/>
<path d="M35.9902 26.9928C37.294 25.2669 37.9993 23.1629 37.9993 20.9998C37.9993 18.8368 37.294 16.7328 35.9902 15.0068" stroke="black" stroke-width="2" stroke-miterlimit="10" stroke-linecap="square"/>
<path d="M26 23C27.1046 23 28 22.1046 28 21C28 19.8954 27.1046 19 26 19C24.8954 19 24 19.8954 24 21C24 22.1046 24.8954 23 26 23Z" fill="#212121"/>
<path d="M17 17H10V23H17V17Z" stroke="#212121" stroke-width="2" stroke-miterlimit="10" stroke-linecap="square"/>
</mask>
<g mask="url(#mask0_167_18)">
<rect width="48" height="48" fill="#7065F0"/>
</g>
</svg>
