<svg width="52" height="52" viewBox="0 0 52 52" fill="none" xmlns="http://www.w3.org/2000/svg">
<path d="M46.91 16.1163L30.911 3.68375C29.507 2.59248 27.7789 2 26 2C24.2211 2 22.493 2.59248 21.089 3.68375L5.087 16.1163C4.12533 16.8634 3.34728 17.8203 2.81227 18.9137C2.27725 20.0072 1.99943 21.2083 2 22.4255V44.0055C2 45.5954 2.63214 47.1201 3.75736 48.2443C4.88258 49.3684 6.4087 50 8 50H44C45.5913 50 47.1174 49.3684 48.2426 48.2443C49.3679 47.1201 50 45.5954 50 44.0055V22.4255C50 19.9587 48.86 17.6299 46.91 16.1163Z" fill="#7065F0" stroke="#7065F0" stroke-width="3" stroke-linecap="round" stroke-linejoin="round"/>
<path d="M38.3243 35.7297C31.5151 39.1892 20.4787 39.1892 13.6757 35.7297" stroke="#F9FAFB" stroke-width="3" stroke-linecap="round" stroke-linejoin="round"/>
</svg>
